<svg width="20" height="20" viewBox="0 0 20 20" fill="none" xmlns="http://www.w3.org/2000/svg">
<path d="M6.71 5.70644L9 3.40586V12.9983C9 13.2635 9.10536 13.518 9.29289 13.7055C9.48043 13.8931 9.73478 13.9985 10 13.9985C10.2652 13.9985 10.5196 13.8931 10.7071 13.7055C10.8946 13.518 11 13.2635 11 12.9983V3.40586L13.29 5.70644C13.383 5.80019 13.4936 5.8746 13.6154 5.92538C13.7373 5.97616 13.868 6.00231 14 6.00231C14.132 6.00231 14.2627 5.97616 14.3846 5.92538C14.5064 5.8746 14.617 5.80019 14.71 5.70644C14.8037 5.61345 14.8781 5.50282 14.9289 5.38093C14.9797 5.25904 15.0058 5.1283 15.0058 4.99626C15.0058 4.86421 14.9797 4.73348 14.9289 4.61159C14.8781 4.4897 14.8037 4.37907 14.71 4.28608L10.71 0.285085C10.6149 0.194021 10.5028 0.122638 10.38 0.0750322C10.1365 -0.0250107 9.86346 -0.0250107 9.62 0.0750322C9.49725 0.122638 9.3851 0.194021 9.29 0.285085L5.29 4.28608C5.19676 4.37934 5.1228 4.49006 5.07234 4.61191C5.02188 4.73377 4.99591 4.86437 4.99591 4.99626C4.99591 5.12815 5.02188 5.25875 5.07234 5.3806C5.1228 5.50246 5.19676 5.61317 5.29 5.70644C5.38324 5.7997 5.49393 5.87368 5.61575 5.92415C5.73757 5.97462 5.86814 6.0006 6 6.0006C6.13186 6.0006 6.26243 5.97462 6.38425 5.92415C6.50607 5.87368 6.61676 5.7997 6.71 5.70644ZM19 11.998C18.7348 11.998 18.4804 12.1034 18.2929 12.291C18.1054 12.4786 18 12.733 18 12.9983V16.9993C18 17.2645 17.8946 17.519 17.7071 17.7065C17.5196 17.8941 17.2652 17.9995 17 17.9995H3C2.73478 17.9995 2.48043 17.8941 2.29289 17.7065C2.10536 17.519 2 17.2645 2 16.9993V12.9983C2 12.733 1.89464 12.4786 1.70711 12.291C1.51957 12.1034 1.26522 11.998 1 11.998C0.734784 11.998 0.48043 12.1034 0.292893 12.291C0.105357 12.4786 0 12.733 0 12.9983V16.9993C0 17.7951 0.316071 18.5584 0.87868 19.1211C1.44129 19.6839 2.20435 20 3 20H17C17.7956 20 18.5587 19.6839 19.1213 19.1211C19.6839 18.5584 20 17.7951 20 16.9993V12.9983C20 12.733 19.8946 12.4786 19.7071 12.291C19.5196 12.1034 19.2652 11.998 19 11.998Z" fill="black"/>
</svg>
