<svg width="20" height="20" viewBox="0 0 20 20" fill="none" xmlns="http://www.w3.org/2000/svg">
<path d="M19 11.998C18.7348 11.998 18.4804 12.1034 18.2929 12.291C18.1054 12.4786 18 12.733 18 12.9983V16.9993C18 17.2646 17.8946 17.519 17.7071 17.7066C17.5196 17.8942 17.2652 17.9995 17 17.9995H3C2.73478 17.9995 2.48043 17.8942 2.29289 17.7066C2.10536 17.519 2 17.2646 2 16.9993V12.9983C2 12.733 1.89464 12.4786 1.70711 12.291C1.51957 12.1034 1.26522 11.998 1 11.998C0.734784 11.998 0.48043 12.1034 0.292893 12.291C0.105357 12.4786 0 12.733 0 12.9983V16.9993C0 17.7951 0.316071 18.5584 0.87868 19.1211C1.44129 19.6839 2.20435 20 3 20H17C17.7956 20 18.5587 19.6839 19.1213 19.1211C19.6839 18.5584 20 17.7951 20 16.9993V12.9983C20 12.733 19.8946 12.4786 19.7071 12.291C19.5196 12.1034 19.2652 11.998 19 11.998Z" fill="black"/>
<path d="M6.71409 8.27251L9.00409 10.5677V0.997875C9.00409 0.733218 9.10945 0.4794 9.29699 0.292259C9.48452 0.105118 9.73887 -1.62125e-05 10.0041 -1.62125e-05C10.2693 -1.62125e-05 10.5237 0.105118 10.7112 0.292259C10.8987 0.4794 11.0041 0.733218 11.0041 0.997875V10.5677L13.2941 8.27251C13.3871 8.17897 13.4977 8.10474 13.6195 8.05408C13.7414 8.00341 13.8721 7.97733 14.0041 7.97733C14.1361 7.97733 14.2668 8.00341 14.3887 8.05408C14.5105 8.10474 14.6211 8.17897 14.7141 8.27251C14.8078 8.36527 14.8822 8.47564 14.933 8.59724C14.9838 8.71884 15.0099 8.84928 15.0099 8.98101C15.0099 9.11274 14.9838 9.24317 14.933 9.36477C14.8822 9.48638 14.8078 9.59674 14.7141 9.68951L10.7141 13.6811C10.619 13.7719 10.6268 13.918 10.5041 13.9655C10.2606 14.0653 9.86755 13.9904 9.62409 13.8906C9.50134 13.8431 9.3892 13.7719 9.29409 13.6811L5.29409 9.68951C5.20085 9.59647 5.12689 9.48601 5.07643 9.36445C5.02597 9.24288 5 9.11259 5 8.98101C5 8.84943 5.02597 8.71914 5.07643 8.59757C5.12689 8.476 5.20085 8.36555 5.29409 8.27251C5.38733 8.17946 5.49802 8.10566 5.61984 8.05531C5.74166 8.00495 5.87223 7.97903 6.00409 7.97903C6.13595 7.97903 6.26652 8.00495 6.38834 8.05531C6.51016 8.10566 6.62085 8.17946 6.71409 8.27251Z" fill="black"/>
</svg>
